<?xml version="1.0" standalone="no"?>
<!DOCTYPE svg PUBLIC "-//W3C//DTD SVG 20010904//EN"
 "http://www.w3.org/TR/2001/REC-SVG-20010904/DTD/svg10.dtd">
<svg version="1.0" xmlns="http://www.w3.org/2000/svg"
 width="375.000000pt" height="375.000000pt" viewBox="0 0 375.000000 375.000000"
 preserveAspectRatio="xMidYMid meet">
<metadata>
Created by potrace 1.16, written by Peter Selinger 2001-2019
</metadata>
<g transform="translate(0.000000,375.000000) scale(0.100000,-0.100000)"
fill="#000000" stroke="none">
<path d="M1705 2824 c-357 -79 -637 -364 -712 -722 -22 -107 -14 -339 16 -437
114 -381 442 -646 831 -671 193 -13 396 37 555 137 111 69 253 215 313 321
298 526 24 1199 -553 1359 -106 29 -345 36 -450 13z m44 -470 c58 -49 60 -128
4 -237 -32 -64 -124 -155 -181 -181 l-43 -19 29 -31 c16 -17 52 -64 81 -104
79 -108 114 -130 153 -95 24 22 36 8 13 -17 -49 -55 -92 -30 -201 116 -47 63
-91 117 -98 120 -6 2 -24 0 -41 -4 -29 -8 -30 -11 -66 -168 -20 -87 -32 -160
-28 -162 14 -6 10 -39 -6 -52 -11 -9 -19 -10 -26 -3 -10 10 12 140 52 295 10
42 19 79 19 82 0 3 -13 12 -30 21 -50 26 -30 85 24 71 28 -7 23 -19 72 179 26
106 37 135 49 123 3 -3 -10 -72 -29 -153 -20 -81 -36 -153 -36 -160 0 -7 13
-18 29 -25 26 -10 36 -9 76 11 105 53 205 199 205 300 0 77 -71 113 -179 89
-115 -26 -224 -99 -261 -176 -19 -39 -21 -51 -12 -80 11 -38 -1 -56 -17 -25
-27 50 -9 112 51 177 76 82 189 133 300 134 57 0 71 -4 97 -26z m711 -59 c0
-39 -19 -169 -61 -410 -21 -126 -41 -242 -44 -257 -3 -20 0 -28 10 -28 8 0 15
-4 15 -8 0 -12 -23 -32 -37 -32 -22 0 -15 72 33 340 48 273 65 430 46 430 -39
0 -143 -210 -220 -442 -44 -134 -69 -176 -60 -100 41 333 45 412 18 412 -13 0
-43 -46 -89 -137 -57 -114 -94 -209 -161 -413 -56 -169 -80 -215 -80 -151 0
35 48 268 115 557 49 213 54 254 30 254 -27 0 -109 -92 -143 -159 -31 -61 -41
-122 -24 -147 11 -16 48 -34 71 -34 13 0 21 -6 21 -16 0 -13 -7 -15 -32 -10
-78 16 -106 61 -88 143 21 97 139 243 195 243 54 0 52 -29 -20 -344 -36 -159
-64 -291 -62 -293 2 -2 9 16 16 39 23 75 111 290 153 371 22 42 54 89 70 102
29 25 31 25 50 8 19 -17 20 -28 16 -140 l-4 -123 22 59 c66 174 145 319 186
339 19 8 26 7 41 -10 9 -11 17 -31 17 -43z"/>
<path d="M1380 1945 c7 -8 19 -15 26 -15 8 0 14 7 14 15 0 10 -10 15 -26 15
-22 0 -25 -2 -14 -15z"/>
<path d="M1171 2796 c-9 -11 -6 -20 14 -44 14 -16 25 -35 25 -41 0 -21 -24
-11 -51 22 -25 29 -29 31 -43 16 -15 -14 -13 -19 20 -57 38 -45 65 -53 86 -24
7 10 21 21 31 25 24 9 22 18 -19 70 -40 51 -46 54 -63 33z"/>
<path d="M975 2603 c-19 -21 -35 -40 -35 -43 0 -3 23 -23 51 -45 41 -31 52
-36 60 -24 13 21 12 25 -22 54 -23 19 -29 29 -21 37 8 8 20 3 42 -16 17 -14
35 -26 40 -26 7 0 20 23 20 36 0 7 -82 64 -92 64 -5 0 -25 -17 -43 -37z"/>
<path d="M820 2450 c0 -13 7 -20 19 -20 11 0 21 -4 23 -9 2 -5 26 -20 55 -35
51 -25 53 -26 63 -6 9 17 4 23 -49 50 -42 21 -61 26 -64 17 -3 -7 -6 -5 -6 6
-1 25 -41 23 -41 -3z"/>
<path d="M773 2302 c-13 -8 -46 -92 -39 -99 9 -10 155 -51 160 -45 15 14 4 40
-19 46 -28 7 -25 26 5 26 20 0 50 25 50 42 0 6 -13 8 -32 6 -21 -4 -37 1 -50
14 -19 19 -54 23 -75 10z m47 -63 c0 -21 -7 -23 -29 -10 -12 8 -12 12 -2 25
16 19 31 12 31 -15z"/>
<path d="M2925 2109 c-22 -5 -44 -14 -48 -18 -14 -14 2 -111 18 -111 8 0 37 5
65 11 40 9 50 15 50 31 0 19 -4 20 -50 14 -41 -5 -50 -4 -50 8 0 10 14 18 38
22 49 9 51 11 45 34 -6 22 -9 22 -68 9z"/>
<path d="M2902 1868 c-17 -17 -15 -73 4 -89 12 -10 17 -10 23 0 6 9 11 8 21
-4 15 -18 44 -20 58 -2 6 6 10 33 10 60 l0 47 -52 0 c-29 0 -57 -5 -64 -12z
m38 -48 c0 -5 -4 -10 -10 -10 -5 0 -10 5 -10 10 0 6 5 10 10 10 6 0 10 -4 10
-10z m45 0 c3 -5 1 -10 -4 -10 -6 0 -11 5 -11 10 0 6 2 10 4 10 3 0 8 -4 11
-10z"/>
<path d="M2826 1664 c-9 -22 3 -37 25 -31 10 3 21 1 24 -3 3 -4 28 -11 55 -15
28 -4 57 -13 65 -21 30 -30 60 -4 37 33 -5 8 -172 53 -198 53 -1 0 -5 -7 -8
-16z"/>
<path d="M2831 1509 c-17 -50 -14 -55 45 -75 48 -16 56 -17 64 -4 14 22 13 24
-31 42 -28 12 -40 22 -36 32 5 13 -10 36 -24 36 -4 0 -12 -14 -18 -31z"/>
<path d="M2746 1328 c-18 -25 -21 -64 -7 -73 5 -3 13 0 17 7 6 9 10 5 14 -12
8 -35 65 -42 75 -9 4 13 14 29 21 37 21 20 18 26 -25 50 -49 28 -76 28 -95 0z
m38 -33 c-4 -8 -8 -15 -10 -15 -2 0 -4 7 -4 15 0 8 4 15 10 15 5 0 7 -7 4 -15z
m41 -14 c3 -5 1 -12 -5 -16 -5 -3 -10 1 -10 9 0 18 6 21 15 7z"/>
<path d="M2618 1161 c-9 -15 -15 -17 -30 -8 -14 9 -21 8 -34 -4 -14 -15 -10
-21 48 -72 55 -50 65 -55 77 -42 13 13 11 19 -18 49 -41 43 -25 57 24 21 60
-46 78 -7 20 44 -41 35 -70 39 -87 12z"/>
<path d="M2455 1018 c-25 -14 -35 -28 -35 -52 0 -13 5 -16 16 -12 12 5 15 2
10 -10 -11 -29 3 -54 30 -54 27 0 84 37 84 55 0 16 -60 85 -73 85 -7 0 -21 -6
-32 -12z m50 -78 c-3 -5 -11 -10 -16 -10 -6 0 -7 5 -4 10 3 6 11 10 16 10 6 0
7 -4 4 -10z"/>
<path d="M2280 962 c-23 -8 -30 -23 -30 -72 l0 -45 -31 38 c-30 36 -52 45 -76
29 -10 -6 -6 -26 16 -82 29 -76 37 -86 59 -71 11 7 11 15 -2 47 l-16 39 26
-32 c14 -18 34 -33 45 -33 16 0 19 7 20 43 l1 42 14 -32 c13 -32 37 -43 48
-24 6 9 -40 141 -52 152 -4 4 -14 4 -22 1z"/>
</g>
</svg>
